<?xml version="1.0" encoding="utf-8"?>
<!-- Generator: Adobe Illustrator 26.5.0, SVG Export Plug-In . SVG Version: 6.00 Build 0)  -->
<svg version="1.1" id="Layer_1" xmlns="http://www.w3.org/2000/svg" xmlns:xlink="http://www.w3.org/1999/xlink" x="0px" y="0px"
	 viewBox="0 0 16.8 16.8" style="enable-background:new 0 0 16.8 16.8;" xml:space="preserve">
<style type="text/css">
	.st0{fill:#999595;}
</style>
<g id="search_2_" transform="translate(0)">
	<path id="Path_2361" class="st0" d="M10.7-0.2c-3.3,0-6,2.7-6,6c0,1.5,0.6,2.9,1.6,4.1l-0.8,0.8c-0.5-0.3-1.2-0.2-1.6,0.2l-3.5,3.5
		c-0.5,0.5-0.5,1.3,0,1.8c0.5,0.5,1.3,0.5,1.8,0l0,0l3.5-3.5c0.4-0.4,0.5-1.1,0.2-1.6l0.8-0.8c2.4,2.3,6.2,2.1,8.5-0.3
		s2.1-6.2-0.3-8.5C13.7,0.4,12.3-0.2,10.7-0.2z M5.3,12.3l-3.5,3.5c-0.3,0.3-0.8,0.3-1.1,0s-0.3-0.8,0-1.1l0,0l3.5-3.5
		c0.3-0.3,0.8-0.3,1.1,0S5.6,12,5.3,12.3L5.3,12.3L5.3,12.3z M10.7,11.3c-3,0-5.5-2.5-5.5-5.5s2.5-5.5,5.5-5.5s5.5,2.5,5.5,5.5l0,0
		C16.2,8.9,13.8,11.3,10.7,11.3L10.7,11.3L10.7,11.3z"/>
</g>
</svg>
